<svg width="25" height="22" viewBox="0 0 25 22" fill="none" xmlns="http://www.w3.org/2000/svg">
<g clip-path="url(#clip0_180_2590)">
<path d="M20.7763 5.41313C22.2858 5.41916 23.5154 4.24011 23.5295 2.77185C23.5458 1.23327 22.3263 -0.00200614 20.7945 2.44602e-06C19.3155 0.00201103 18.0677 1.20515 18.0556 2.63728C18.0434 4.19393 19.2323 5.40711 20.7763 5.41313Z" fill="white"/>
<path d="M23.0365 10.5544C22.5557 10.5063 22.0647 10.5625 21.5797 10.5926C20.7703 10.6428 19.9607 10.7071 19.1107 10.7694C19.1492 9.77914 19.1836 8.84514 19.2222 7.91317C19.2465 7.31863 19.0822 6.77831 18.6907 6.33041C18.3092 5.89254 17.8893 5.4868 17.4814 5.07103C16.2499 3.81565 15.0164 2.56029 13.7808 1.30694C13.1153 0.630048 12.3504 0.559747 11.6769 1.1563C10.5123 2.18671 9.35989 3.23318 8.21965 4.28969C7.59882 4.86615 7.58868 5.68163 8.15474 6.26612C8.71268 6.84259 9.49785 6.86469 10.1309 6.3063C10.6726 5.82826 11.2062 5.33616 11.7438 4.85209C12.0238 4.60101 12.3038 4.34994 12.5087 4.16716C13.1072 4.71952 13.6834 5.2518 14.3043 5.82424C14.1785 5.93069 14.0628 6.01103 13.9654 6.10946C13.0179 7.05349 12.0684 7.99752 11.1209 8.94357L11.125 8.94557L10.1004 9.95991C10.068 9.99405 10.0335 10.0262 10.001 10.0603C9.93811 10.1246 9.87928 10.1869 9.82653 10.2471C6.79336 13.264 3.76019 16.285 0.729068 19.3058C0.58299 19.4505 0.434882 19.5931 0.305035 19.7518C-0.348262 20.5572 0.104176 21.7503 1.12673 21.9672C1.71104 22.0917 2.13101 21.8427 2.5165 21.457C5.20272 18.7796 7.89099 16.1021 10.5792 13.4267C11.0865 13.9268 11.6667 14.5013 11.8899 14.7303C12.7765 15.6422 13.6631 16.5561 14.5721 17.4921C13.7138 17.5724 12.9388 17.6447 12.1638 17.7191C11.0946 17.8235 10.0254 17.9099 8.96019 18.0465C8.29472 18.1308 7.90518 18.6149 7.85851 19.2878C7.81389 19.9466 8.17908 20.5391 8.80194 20.6998C9.09612 20.7761 9.42683 20.76 9.73522 20.732C12.3383 20.491 14.9393 20.2318 17.5403 19.9888C18.1794 19.9284 18.6683 19.6715 18.8956 19.0588C19.1228 18.4462 18.93 17.934 18.4736 17.48C17.656 16.6646 16.8546 15.8309 16.0471 15.0055C15.3247 14.2663 14.6025 13.5272 13.864 12.7719C14.6715 12.0368 15.4586 11.3177 16.2378 10.6107C16.2378 11.159 16.2236 11.6752 16.2418 12.1874C16.2743 13.1315 16.8749 13.7119 17.804 13.6517C19.5246 13.5412 21.245 13.4107 22.9635 13.2681C23.6635 13.2098 24.1443 12.6394 24.1524 11.9223C24.1625 11.2133 23.7161 10.6207 23.0365 10.5544Z" fill="white"/>
</g>
<defs>
<clipPath id="clip0_180_2590">
<rect width="25" height="22" fill="white"/>
</clipPath>
</defs>
</svg>
